<svg xmlns="http://www.w3.org/2000/svg" viewBox="0 0 800 560"><defs><linearGradient id="bg" x1="0" x2="1" y1="0" y2="1"><stop stop-color="#f8eadd"/><stop offset="1" stop-color="#e8d0bd"/></linearGradient></defs><rect width="800" height="560" fill="url(#bg)"/><circle cx="400" cy="270" r="175" fill="#fff9f3" stroke="#d4b49c" stroke-width="13"/><circle cx="400" cy="270" r="122" fill="#f4e4d7"/><path d="M300 280c55-70 165-76 208 0-48 62-164 69-208 0Z" fill="#b8663d"/><circle cx="350" cy="245" r="13" fill="#81a674"/><circle cx="446" cy="300" r="13" fill="#81a674"/><path d="M55 110v280M87 110v280M119 110v280M87 270H55M119 270H87" stroke="#9e6b52" stroke-width="11" stroke-linecap="round"/><path d="M705 110v280M675 110c0 65-12 95 30 111" fill="none" stroke="#9e6b52" stroke-width="11" stroke-linecap="round"/><text x="400" y="512" text-anchor="middle" fill="#8f624c" font-family="Arial,sans-serif" font-weight="bold" font-size="24">Sazón &amp; Raíz</text></svg>
